<svg xmlns="http://www.w3.org/2000/svg" xmlns:xlink="http://www.w3.org/1999/xlink" aria-hidden="true" role="img" class="iconify iconify--logos" width="35.93" height="32" preserveAspectRatio="xMidYMid meet" viewBox="0 0 256 228"><path fill="#00D8FF" d="M210.483 73.824a171.49 171.49 0 0 0-8.24-2.597c.465-1.9.893-3.777 1.273-5.621 6.238-30.281 2.16-54.676-11.769-62.708-13.355-7.7-35.196.329-57.254 19.526a171.23 171.23 0 0 0-6.375 5.848 155.866 155.866 0 0 0-4.241-3.917C100.759 3.829 77.587-4.822 63.673 3.233 50.33 10.957 46.379 33.89 52.831 63.588a170.974 170.974 0 0 0 1.892 8.48c-3.28.932-6.445 1.924-9.474 2.98C17.309 83.498 0 98.307 0 113.668c0 15.865 18.582 31.778 46.812 41.427a145.52 145.52 0 0 0 6.921 2.165c-.443 1.869-.835 3.713-1.167 5.521-6.238 30.282-2.16 54.676 11.769 62.708 13.355 7.7 35.196-.329 57.254-19.526a145.567 145.567 0 0 0 5.134-4.72c1.33 1.229 2.69 2.418 4.08 3.56 20.158 16.879 40.591 24.02 54.504 15.965 13.343-7.724 17.294-30.657 10.842-60.355a170.974 170.974 0 0 0-1.892-8.48c3.28-.932 6.445-1.924 9.474-2.98 29.928-8.265 47.237-23.074 47.237-38.435 0-15.865-18.582-31.778-46.812-41.427Zm-6.365 70.984c-1.4.386-2.836.76-4.3 1.12-4.17-12.417-9.582-24.24-16.1-35.293 6.518-11.053 11.93-22.876 16.1-35.293 1.464.36 2.9.734 4.3 1.12 12.316 3.4 23.1 7.867 31.235 13.1-8.135 5.233-18.919 9.7-31.235 13.1Zm-10.857 12.553c-2.562 1.386-5.273 2.73-8.1 4.02-5.88-9.4-12.4-18.199-19.4-26.3 7-8.101 13.52-16.9 19.4-26.3 2.827 1.29 5.538 2.634 8.1 4.02 12.4 6.7 22.7 14.3 29.7 22.3-7 8-17.3 15.6-29.7 22.3Zm-31.2 15.1a347.8 347.8 0 0 1-7.5 2.1c-3.1-6.1-6.5-12.1-10.1-18.1 3.6-6 7-12 10.1-18.1 2.5-.7 5-1.4 7.5-2.1 8.1-2.3 15.5-5.1 21.9-8.2-6.4-3.1-13.8-5.9-21.9-8.2Zm-45.6-15.1c-12.4-6.7-22.7-14.3-29.7-22.3 7-8 17.3-15.6 29.7-22.3 2.562-1.386 5.273-2.73 8.1-4.02 5.88 9.4 12.4 18.199 19.4 26.3-7 8.101-13.52 16.9-19.4 26.3-2.827-1.29-5.538-2.634-8.1-4.02Zm-31.2-15.1c-8.1 2.3-15.5 5.1-21.9 8.2 6.4 3.1 13.8 5.9 21.9 8.2 2.5.7 5 1.4 7.5 2.1 3.1 6.1 6.5 12.1 10.1 18.1-3.6 6-7 12-10.1 18.1-2.5-.7-5-1.4-7.5-2.1Zm-22.1-27.2c-8.135-5.233-18.919-9.7-31.235-13.1-1.4-.386-2.836-.76-4.3-1.12 4.17-12.417 9.582-24.24 16.1-35.293-6.518-11.053-11.93-22.876-16.1-35.293-1.464-.36-2.9-.734-4.3-1.12-12.316-3.4-23.1-7.867-31.235-13.1 8.135-5.233 18.919-9.7 31.235-13.1Z"></path><circle cx="128" cy="113.668" r="17.5" fill="#00D8FF"></circle></svg>
